<svg width="68" height="65" viewBox="0 0 68 65" fill="none" xmlns="http://www.w3.org/2000/svg">
<path d="M66.6614 23.206L64.914 23.2887C65.7314 26.0954 66.3459 29.5472 66.3459 32.5C66.3459 36.6631 65.5339 40.7022 63.9347 44.5042C62.3903 48.1765 60.1765 51.474 57.3593 54.3054C54.5421 57.1369 51.2586 59.3619 47.6074 60.9141C43.8246 62.5214 39.8059 63.3375 35.6637 63.3375C31.5216 63.3375 27.5029 62.5214 23.7201 60.9141C20.0662 59.3619 16.7854 57.1369 13.9681 54.3054C11.1509 51.474 8.9372 48.1738 7.39281 44.5042C5.79355 40.7022 4.98158 36.6631 4.98158 32.5C4.98158 28.3369 5.79355 24.2978 7.39281 20.4958C8.9372 16.8235 11.1509 13.526 13.9681 10.6946C16.7881 7.86032 20.0689 5.63815 23.7228 4.08318C27.5056 2.47582 31.5243 1.65974 35.6665 1.65974C41.9757 1.65974 48.0381 3.57037 53.1925 7.18209C57.8997 10.4795 61.5536 14.968 63.8194 20.2146H62.1544H62.1269H59.1149H52.5204H51.3902V21.8771H52.5204H59.9187H62.1269H62.1544H66.2609L65.8247 20.7467C63.493 14.7033 59.4523 9.54212 54.1389 5.82011C48.7019 2.01264 42.3131 0 35.6637 0C31.2994 0 27.064 0.860197 23.0782 2.55302C19.2268 4.1907 15.7704 6.53419 12.7996 9.52006C9.83147 12.5032 7.49979 15.9798 5.87036 19.8479C4.18332 23.8539 3.3302 28.1108 3.3302 32.4972C3.3302 36.8837 4.18606 41.1406 5.87036 45.1465C7.49979 49.0174 9.83147 52.4913 12.7996 55.4772C15.7677 58.4603 19.2268 60.8038 23.0782 62.4415C27.064 64.137 31.2994 64.9945 35.6637 64.9945C40.0281 64.9945 44.2635 64.1343 48.2493 62.4415C52.1007 60.8038 55.5571 58.4603 58.5279 55.4772C61.496 52.4941 63.8277 49.0174 65.4571 45.1465C67.1441 41.1406 67.9973 36.8837 67.9973 32.4972C68 29.3901 67.5227 26.1643 66.6614 23.206Z" fill="#007163"/>
<path d="M50.9678 18.9907H45.2208C44.9904 18.9907 44.8011 19.1782 44.8011 19.4126V22.4729C44.8011 22.7045 44.9904 22.8947 45.2208 22.8947H50.9678C51.1214 22.8947 51.2558 22.8092 51.3298 22.6852C51.3545 22.6438 51.371 22.5997 51.382 22.5501C51.3875 22.5253 51.3902 22.4977 51.3902 22.4729V19.4126C51.3902 19.4015 51.3875 19.3905 51.3875 19.3767C51.3683 19.1617 51.1899 18.9907 50.9678 18.9907Z" fill="#A67C52"/>
<path d="M58.4648 19.065C52.1144 8.35391 38.6785 2.83707 25.6924 7.89072C16.9006 11.3122 9.34044 21.9296 8.96737 31.3973C8.16911 51.6505 28.4849 65.5625 47.1713 56.9137C55.173 53.2082 60.7691 45.6291 61.9514 36.8534C62.6371 31.7695 61.9706 27.0411 60.3301 22.878H52.5177V23.2337C52.5177 23.4625 52.3339 23.65 52.1034 23.65H44.2059C43.9782 23.65 43.7917 23.4652 43.7917 23.2337V18.5219C43.7917 18.293 43.9755 18.1056 44.2059 18.1056H52.1034C52.3311 18.1056 52.5177 18.2903 52.5177 18.5219V19.065H58.4648ZM21.7806 49.7178C18.028 46.6961 15.6716 42.3841 15.1449 37.5813L17.1475 37.3607C17.6138 41.6259 19.7068 45.4554 23.0397 48.138C26.3727 50.8234 30.545 52.042 34.7887 51.5705L35.0081 53.5832C30.2323 54.1125 25.5333 52.7395 21.7806 49.7178ZM20.3981 36.3765L22.8011 36.109C23.4677 42.1938 28.9183 46.5858 34.9725 45.9158L35.2385 48.331C27.8677 49.1498 21.2101 43.7846 20.3981 36.3765ZM43.9535 34.4107C43.5503 36.8452 42.0498 38.9708 39.8964 40.1564C33.4116 43.7323 25.9996 38.447 27.2148 31.1133C27.6181 28.6788 29.1186 26.5531 31.2719 25.3676C37.7595 21.7917 45.1715 27.077 43.9535 34.4107Z" fill="#1A2535"/>
<path d="M3.64842 50.0789C3.62648 49.9162 3.60453 49.7536 3.58259 49.5909C3.49481 49.2794 3.33845 49.0119 3.11351 48.7831C2.99007 48.6866 2.86662 48.5929 2.74318 48.4964C2.4579 48.3309 2.15341 48.2482 1.82423 48.2455C1.5746 48.2372 1.33869 48.2896 1.12198 48.4026C0.897042 48.4771 0.699535 48.6039 0.534946 48.7803C0.356641 48.9458 0.230456 49.1443 0.159134 49.3703C0.0439213 49.5882 -0.00819862 49.8253 0.00277398 50.0762C0.0247192 50.2388 0.0466644 50.4015 0.0686096 50.5641C0.15639 50.8757 0.31275 51.1431 0.537689 51.372C0.661131 51.4685 0.784572 51.5622 0.908014 51.6587C1.1933 51.8241 1.49779 51.9068 1.82697 51.9096C2.07934 51.9179 2.31251 51.8655 2.52922 51.7524C2.75416 51.678 2.95166 51.5512 3.11625 51.3747C3.29456 51.2093 3.42074 51.0108 3.49206 50.7847C3.60453 50.5669 3.65665 50.3326 3.64842 50.0789Z" fill="#007163"/>
</svg>
